<?xml version="1.0" encoding="utf-8"?>
<!-- Generator: Adobe Illustrator 16.0.0, SVG Export Plug-In . SVG Version: 6.00 Build 0)  -->
<!DOCTYPE svg PUBLIC "-//W3C//DTD SVG 1.1//EN" "http://www.w3.org/Graphics/SVG/1.1/DTD/svg11.dtd">
<svg version="1.1" id="Layer_1" xmlns="http://www.w3.org/2000/svg" xmlns:xlink="http://www.w3.org/1999/xlink" x="0px" y="0px"
	 width="50px" height="50px" viewBox="0 0 50 50" enable-background="new 0 0 50 50" xml:space="preserve">
<g id="Layer_1_1_">
	<g>
		<path fill="#666666" d="M48.407,8.129c-0.464-0.531-1.132-0.839-1.838-0.839H12.988l-0.475-2.829
			C12.319,3.29,11.307,2.43,10.117,2.43H4.651c-1.345,0-2.429,1.085-2.429,2.43s1.084,2.43,2.429,2.43h3.409l4.52,27.128
			c0.019,0.109,0.076,0.199,0.108,0.303c0.04,0.129,0.072,0.25,0.131,0.365c0.078,0.163,0.182,0.299,0.292,0.438
			c0.076,0.095,0.144,0.188,0.232,0.271c0.14,0.131,0.304,0.222,0.469,0.315c0.092,0.049,0.171,0.117,0.27,0.156
			c0.285,0.115,0.579,0.184,0.893,0.184c0.003,0,26.734,0,26.734,0c1.345,0,2.43-1.086,2.43-2.43c0-1.346-1.085-2.43-2.43-2.43
			H17.038l-0.403-2.43h27.506c1.209,0,2.235-0.891,2.406-2.087l2.43-17.009C49.073,9.364,48.864,8.659,48.407,8.129z M43.769,12.15
			l-0.694,4.859h-8.655V12.15H43.769z M31.989,12.15v4.859h-7.29V12.15H31.989z M31.989,19.439v4.86h-7.29v-4.86H31.989z
			 M22.269,12.15v4.859h-7.29c-0.13,0-0.245,0.036-0.359,0.073l-0.822-4.932H22.269z M15.013,19.439h7.256v4.86h-6.446
			L15.013,19.439z M34.419,24.3v-4.86h8.305l-0.691,4.86H34.419z"/>
		<circle fill="#666666" cx="18.625" cy="42.525" r="3.645"/>
		<path fill="#666666" d="M40.493,38.88c2.014,0,3.646,1.632,3.646,3.646c0,2.012-1.633,3.645-3.646,3.645
			c-2.01,0-3.644-1.633-3.644-3.645C36.85,40.512,38.483,38.88,40.493,38.88z"/>
	</g>
</g>
<g id="nyt_x5F_exporter_x5F_info" display="none">
</g>
</svg>
